<?xml version="1.0" encoding="UTF-8" standalone="no"?>
<!DOCTYPE svg PUBLIC "-//W3C//DTD SVG 1.1//EN" "http://www.w3.org/Graphics/SVG/1.1/DTD/svg11.dtd">
<svg width="100%" height="100%" viewBox="0 0 4267 4267" version="1.1" xmlns="http://www.w3.org/2000/svg" xmlns:xlink="http://www.w3.org/1999/xlink" xml:space="preserve" xmlns:serif="http://www.serif.com/" style="fill-rule:evenodd;clip-rule:evenodd;stroke-linejoin:round;stroke-miterlimit:2;">
    <g>
        <g transform="matrix(3.35984,0,0,2.4622,-2.84217e-14,-130.497)">
            <path d="M1270,486.25C1270,247.133 1127.73,53 952.5,53L317.5,53C142.267,53 0,247.133 0,486.25L0,1352.75C0,1591.87 142.267,1786 317.5,1786L952.5,1786C1127.73,1786 1270,1591.87 1270,1352.75L1270,486.25Z" style="fill:rgb(255,91,36);"/>
        </g>
        <g transform="matrix(105.797,0,0,105.797,-3865.89,-1601.13)">
            <path d="M57.3,40.7C61,40.7 63.1,38.9 65.1,36.3C66.2,34.9 67.6,34.6 68.6,35.4C69.6,36.2 69.7,37.7 68.6,39.1C65.7,42.9 62,45.2 57.3,45.2C52.2,45.2 47.7,42.4 44.6,37.5C43.7,36.2 43.9,34.8 44.9,34.1C45.9,33.4 47.4,33.7 48.3,35.1C50.5,38.4 53.5,40.7 57.3,40.7ZM64.2,28.4C64.2,30.2 62.8,31.4 61.2,31.4C59.6,31.4 58.2,30.2 58.2,28.4C58.2,26.6 59.6,25.4 61.2,25.4C62.8,25.4 64.2,26.7 64.2,28.4Z" style="fill:white;fill-rule:nonzero;"/>
        </g>
    </g>
</svg>
