<svg enable-background="new 0 0 1024 1024" viewBox="0 0 1024 1024" xmlns="http://www.w3.org/2000/svg"><path d="m1024 864c0 88.4-71.6 160-160 160h-704c-88.4 0-160-71.6-160-160v-704c0-88.4 71.6-160 160-160h704c88.4 0 160 71.6 160 160z" fill="#175ddc"/><path d="m829.8 128.6c-6.5-6.5-14.2-9.7-23-9.7h-589.6c-8.9 0-16.5 3.2-23 9.7s-9.7 14.2-9.7 23v393.1c0 29.3 5.7 58.4 17.1 87.3 11.4 28.8 25.6 54.4 42.5 76.8 16.9 22.3 37 44.1 60.4 65.3s45 38.7 64.7 52.7c19.8 14 40.4 27.2 61.9 39.7s36.8 20.9 45.8 25.3 16.3 7.9 21.7 10.2c4.1 2 8.5 3.1 13.3 3.1s9.2-1 13.3-3.1c5.5-2.4 12.7-5.8 21.8-10.2 9-4.4 24.3-12.9 45.8-25.3 21.5-12.5 42.1-25.7 61.9-39.7s41.4-31.6 64.8-52.7c23.4-21.2 43.5-42.9 60.4-65.3s31-47.9 42.5-76.8c11.4-28.8 17.1-57.9 17.1-87.3v-393c.1-8.9-3.2-16.6-9.7-23.1zm-76 419.8c0 142.3-241.8 264.9-241.8 264.9v-610.2h241.8z" fill="#fff"/></svg>