<svg enable-background="new 0 0 200 200" viewBox="0 0 200 200" xmlns="http://www.w3.org/2000/svg" xmlns:xlink="http://www.w3.org/1999/xlink"><linearGradient id="a" gradientUnits="userSpaceOnUse" x1="100.0489624" x2="100.0489624" y1="23.2768008" y2="175.7346504"><stop offset="0" stop-color="#226e23"/><stop offset="1" stop-color="#63ab3a"/></linearGradient><circle cx="100.001" cy="100" fill="#fff" r="95.081"/><path d="m113.925 24.936c1.741 7.615-3.046 15.448-10.879 17.189s-15.448-3.046-17.189-10.879c-.435-2.176-.435-4.134 0-6.31 9.357-1.958 18.93-1.958 28.068 0zm-53.958 17.406c0 15.448 8.921 29.59 22.845 36.118v72.67l17.189 17.189 17.189-17.189-1.088-15.23 8.05-8.05-8.05-8.05 12.184-12.184-12.184-12.184 1.088-16.971c16.536-7.833 25.674-25.892 22.193-43.95 36.335 21.758 48.084 68.754 26.327 104.872s-68.754 48.084-105.089 26.327-47.868-68.756-26.328-104.874c6.527-10.879 15.448-19.799 26.326-26.326-.435 2.61-.652 5.221-.652 7.832zm28.502 45.691h5.657v57.223h-5.657z" fill="url(#a)" opacity=".94"/><circle cx="100.001" cy="100" fill="none" r="95.081" stroke="#515151" stroke-miterlimit="10" stroke-width="6.5"/></svg>