<svg enable-background="new 0 0 352 52" viewBox="0 0 352 52" xmlns="http://www.w3.org/2000/svg"><g><path d="m.4.3c.3-.2.7-.3 1.3-.3h5.7c.7 0 1.2.1 1.4.3.3.2.4.6.4 1.3v35.3c0 2 .5 3.4 1.5 4.2s2.3 1.2 4 1.2h13.3c.6 0 1.2 0 1.6.4.4.3.3.5.5 1.3.3.8.8 4.8.8 4.8 0 .4 0 .7-.3 1s-.8.5-1.2.6-1.3.2-2.5.2-13.6 0-13.6 0c-2.6 0-4.8-.4-6.5-1.1-1.7-.8-3.1-1.8-4.1-3.1s-1.7-2.7-2.1-4.4c-.4-1.6-.6-3.3-.6-5.1v-35.3c0-.7.1-1.1.4-1.3z"/><path d="m190.7 46.4c0 1.1-.4 1.9-1.3 2.3-1 .5-2.1.9-3.3 1.2s-2.4.6-3.7.8-2.5.3-3.8.4c-1.2.1-2.4.1-3.5.1-3.1 0-5.7-.3-7.7-1-2-.6-3.6-1.5-4.8-2.5-1.2-1.1-2-2.3-2.5-3.7s-.7-3-.7-4.6.3-3.2.8-4.8c.5-1.5 1.4-2.9 2.6-4 1.2-1.2 2.8-2.1 4.7-2.8s4.3-1.1 7.1-1.1h7.9v-1.2c0-.9-.1-1.7-.3-2.5s-.5-1.4-1.1-2c-.5-.6-1.3-1-2.2-1.3s-2.2-.5-3.6-.5c-1.6 0-3.7.4-4.9.8-.5.1-.9.2-1.1.1s-.4-.4-.5-.8l-1-4c-.2-.8 0-1.2.6-1.5 2-.8 6.1-1.4 8.2-1.4 4.9 0 8.4 1.1 10.7 3.3s3.4 5.3 3.4 9.5zm-8.3-13.4h-6.7c-.8 0-1.6 0-2.6.1-.9.1-1.8.4-2.6.8s-1.5 1-2 1.8-.8 1.9-.8 3.3c0 2 .7 3.4 2 4.2 1.4.8 3.2 1.2 5.4 1.2h1.4c.6 0 1.2-.1 1.9-.2s1.3-.2 2.1-.4c.7-.1 1.4-.3 2-.6v-10.2z" fill="#d32d27"/><path d="m95.8 39.3c0 1.9-.3 3.5-1 4.9s-1.6 2.6-2.9 3.5c-1.2.9-2.7 1.6-4.4 2.1s-3.5.7-5.5.8c-1.1 0-2.3 0-3.6-.1s-2.5-.2-3.8-.5c-1.3-.2-2.5-.5-3.7-.9s-2.3-.8-3.3-1.4c-.7-.4-.9-.9-.5-1.7l1.6-3.9c.2-.4.5-.7.7-.8s.6-.1 1.1.2c1.7.8 3.6 1.3 5.6 1.7 2.1.4 3.9.6 5.5.6 2 0 3.4-.4 4.4-1.2s1.4-1.8 1.4-3c0-1.3-.7-2.4-2-3.2s-3.2-1.6-5.7-2.5c-1.9-.7-3.6-1.3-5.1-2-1.4-.7-2.6-1.4-3.6-2.3-1-.8-1.7-1.8-2.2-2.8-.5-1.1-.8-2.3-.8-3.7 0-1.5.2-2.9.8-4.2.5-1.3 1.4-2.4 2.5-3.3s2.5-1.7 4.1-2.3 3.5-.9 5.7-.9c2 0 3.9.1 5.9.4s3.9.8 5.7 1.5c.4.2.6.4.7.7s.1.6 0 1l-1.5 4c-.1.4-.3.6-.5.6-.2.1-.5 0-.9-.1-1.8-.6-3.4-1-4.8-1.2-1.2-.2-2.7-.3-4.3-.3-1.7 0-3 .4-3.8 1.1s-1.2 1.5-1.2 2.4c0 .6.1 1.2.4 1.7s.7.9 1.3 1.3 1.3.8 2.2 1.2 2 .8 3.4 1.3c1.5.5 3 1.1 4.4 1.7s2.7 1.3 3.8 2.2 2 1.9 2.7 3.1c.8 1.1 1.2 2.6 1.2 4.3"/><path d="m122 49.6c-1.6.5-3.2.8-4.8.9s-2.8.1-3.7.1c-3.8 0-6.6-.8-8.1-2.5-1.6-1.7-2.4-4.2-2.4-7.6l.2-20.1h-5.2c-.5 0-.7-.1-.9-.3s-.3-.4-.2-.8c.1-.3 1.4-3.7 1.4-3.7.1-.1.4-.9.5-1 .1-.2.3-.3.9-.3h3.5v-6.8c0-.9.4-1.1.6-1.3s.6-.4 1.1-.6l5-1.4c.4-.1.7-.1.9.1s.4.5.4 1v9h7.1c.5 0 .8.1.9.3s.2.5.2.8v3.9c0 .4-.1.7-.2.9s-.4.3-.9.3h-7.1v19c0 1.5.4 2.5 1.1 3.1s1.8.8 3.2.8h1.1c.5 0 .9-.1 1.4-.1s1-.1 1.5-.2.9-.1 1.2-.2c.5-.1.8-.1.9 0s.2.3.3.7l.8 4.5c0 .3.1.5 0 .7-.1.4-.3.6-.7.8z"/><path d="m138.2 49.6c0 .7-.1 1.1-.3 1.3s-1.1.3-1.8.3h-4.6c-.5 0-1-.1-1.3-.3s-.4-.6-.4-1.3v-44.4c0-.6.1-1.5.2-2 .1-.7.1-.9.5-1.3.4-.5 1-.8 1.7-.9.4-.1.7 0 1.3 0h14.1c2.5 0 4.7.4 6.8 1.2 2 .8 3.8 1.9 5.3 3.3s2.6 3.1 3.4 5.1 1.2 4.1 1.2 6.5c0 1.3-.2 3-.6 4.8-.4 1.9-1.3 3.7-2.5 5.4-1.3 1.7-3 3.2-5.3 4.4s-5.3 1.8-9 1.8h-8.5v16.1zm18-34.8c-.3-1-.7-1.9-1.4-2.7s-1.6-1.5-2.8-2.1c-1.2-.5-2.7-.8-4.5-.8h-8.8v16.6h9c3.1 0 5.4-.8 6.8-2.3s2.1-3.5 2.1-5.9c.1-.9-.1-1.8-.4-2.8z" fill="#d32d27"/><path d="m221.8 44.7c-.7 1.4-1.6 2.6-2.9 3.5-1.2.9-2.7 1.6-4.4 2.1s-3.5.7-5.5.8c-1.1 0-2.3 0-3.6-.1s-2.5-.2-3.8-.5c-1.3-.2-2.5-.5-3.7-.9s-2.3-.8-3.3-1.4c-.7-.4-.9-.9-.5-1.7l1.6-3.9c.2-.4.5-.7.7-.8s.6-.1 1.1.2c1.7.8 3.6 1.3 5.6 1.7 2.1.4 3.9.6 5.5.6 2 0 3.4-.4 4.4-1.2s1.4-1.8 1.4-3c0-1.3-.7-2.4-2-3.2s-3.2-1.6-5.7-2.5c-1.9-.7-3.6-1.3-5.1-2-1.4-.7-2.6-1.4-3.6-2.3-1-.8-1.7-1.8-2.2-2.8-.5-1.1-.8-2.3-.8-3.7 0-1.5.2-2.9.8-4.2s1.4-2.4 2.5-3.3 2.5-1.7 4.1-2.3 3.5-.9 5.7-.9c2 0 3.9.1 5.9.4s3.9.8 5.7 1.5c.4.2.6.4.7.7s.1.6 0 1l-1.5 4c-.1.4-.3.6-.5.6-.2.1-.5 0-.9-.1-1.8-.6-3.4-1-4.8-1.2s-2.9-.3-4.5-.3c-1.7 0-3 .4-3.8 1.1s-1.2 1.5-1.2 2.4c0 .6.1 1.2.4 1.7s.7.9 1.3 1.3 1.3.8 2.2 1.2 2 .8 3.4 1.3c1.5.5 3 1.1 4.4 1.7s2.7 1.3 3.8 2.2 2 1.9 2.7 3.1 1.1 2.6 1.1 4.4c.3 1.7 0 3.3-.7 4.8z" fill="#d32d27"/><path d="m254.2 39.8c0 1.9-.3 3.5-1 4.9s-1.6 2.6-2.9 3.5c-1.2.9-2.7 1.6-4.4 2.1s-3.5.7-5.5.8c-1.1 0-2.3 0-3.6-.1s-2.5-.2-3.8-.5c-1.3-.2-2.5-.5-3.7-.9s-2.3-.8-3.3-1.4c-.7-.4-.9-.9-.5-1.7l1.6-3.9c.2-.4.5-.7.7-.8s.6-.1 1.1.2c1.7.8 3.6 1.3 5.6 1.7 2.1.4 3.9.6 5.5.6 2 0 3.4-.4 4.4-1.2s1.4-1.8 1.4-3c0-1.3-.7-2.4-2-3.2s-3.2-1.6-5.7-2.5c-1.9-.7-3.6-1.3-5.1-2-1.4-.7-2.6-1.4-3.6-2.3-1-.8-1.7-1.8-2.2-2.8-.5-1.1-.8-2.3-.8-3.7 0-1.5.2-2.9.8-4.2.5-1.3 1.4-2.4 2.5-3.3s2.5-1.7 4.1-2.3 3.5-.9 5.7-.9c2 0 3.9.1 5.9.4s3.9.8 5.7 1.5c.4.2.6.4.7.7s.1.6 0 1l-1.5 4c-.1.4-.3.6-.5.6-.2.1-.5 0-.9-.1-1.8-.6-3.4-1-4.8-1.2s-2.9-.3-4.5-.3c-1.7 0-3 .4-3.8 1.1s-1.2 1.5-1.2 2.4c0 .6.1 1.2.4 1.7s.7.9 1.3 1.3 1.3.8 2.2 1.2 2 .8 3.4 1.3c1.5.5 3 1.1 4.4 1.7s2.7 1.3 3.8 2.2 2 1.9 2.7 3.1c1.1 1.1 1.4 2.6 1.4 4.3" fill="#d32d27"/><path d="m63.8 45.9c0 1.1-.4 1.9-1.3 2.3-1 .5-2.1.9-3.3 1.2s-2.4.6-3.7.8-2.5.3-3.8.4c-1.2.1-2.4.1-3.5.1-3.1 0-5.7-.3-7.7-1-2-.6-3.6-1.5-4.8-2.5-1.2-1.1-2-2.3-2.5-3.8-.5-1.4-.7-3-.7-4.6 0-1.7.3-3.2.8-4.8.5-1.5 1.4-2.9 2.6-4 1.2-1.2 2.8-2.1 4.7-2.8s4.3-1.1 7.1-1.1h7.9v-1.2c0-.9-.1-1.7-.3-2.5s-.6-1.4-1.1-2-1.3-1-2.2-1.3-2.2-.5-3.6-.5c-1.6 0-3.3.1-5.2.4s-3.4.6-4.6 1c-.5.1-.9.2-1.1.1s-.4-.4-.5-.8l-1-4c-.2-.8 0-1.2.6-1.5 2-.8 4.1-1.3 6.5-1.6 2.3-.3 4.5-.5 6.6-.5 4.9 0 8.4 1.1 10.7 3.3s3.4 5.3 3.4 9.5zm-8.3-13.3h-6.7c-.8 0-1.6 0-2.6.1-.9.1-1.8.4-2.6.8s-1.5 1-2 1.8-.8 1.9-.8 3.3c0 2 .7 3.4 2 4.2 1.4.8 3.2 1.2 5.4 1.2h1.4c.6 0 1.2-.1 1.9-.2s1.3-.2 2.1-.4c.7-.1 1.4-.3 2-.6v-10.2z"/><g fill="#d32d27"><path d="m347.4 12.9c0-1.3 1-2.3 2.3-2.3 1.3 0 2.3 1 2.3 2.3v36.8c0 1.3-1 2.3-2.3 2.3-1.3 0-2.3-1-2.3-2.3z"/><ellipse cx="274.425162" cy="32.189381" rx="7.8" ry="7.8"/><ellipse cx="300.425162" cy="32.189381" rx="7.8" ry="7.8"/><ellipse cx="326.425162" cy="32.189381" rx="7.8" ry="7.8"/></g></g></svg>