<svg clip-rule="evenodd" fill-rule="evenodd" stroke-linejoin="round" stroke-miterlimit="2" viewBox="0 0 2134 2134" xmlns="http://www.w3.org/2000/svg"><path d="m905.208 2087.43v-722.06h-262.5v-298.708h262.5v-227.667c0-258.958 154.167-402 390.292-402 113.083 0 231.333 20.167 231.333 20.167v254.166h-130.333c-128.333 0-168.375 79.667-168.375 161.375v193.959h286.583l-45.833 298.708h-240.75v722.06c-52.611 8.271-106.537 12.565-161.458 12.565s-108.847-4.294-161.459-12.565zm-871.623-997.787.01.478-.003-.129zm2066.16.349-.003.129.01-.478zm.069-3.325-.006.303.015-.827zm-2066.3-.524.016.827-.006-.303zm-.056-3.349.016 1.016-.009-.471zm2066.41.545-.008.471.016-1.016zm-2066.46-3.824.015 1.124-.009-.63zm2066.5.494-.009.63.015-1.124zm-2066.54-3.734.012 1.173-.009-.772zm2066.57.401-.008.772.012-1.173zm-2066.6-3.618.008 1.157-.006-.875zm2066.63.282-.007.875.008-1.157zm-2066.64-3.485.005 1.004-.004-.857zm2066.66.147-.004.857.004-1.004z" fill="#fff"/><path d="m2100 1066.67c0-570.834-462.5-1033.33-1033.33-1033.33-570.834 0-1033.33 462.5-1033.33 1033.33 0 515.75 377.875 943.25 871.875 1020.83v-722.125h-262.5v-298.708h262.5v-227.667c0-258.958 154.167-402 390.292-402 113.083 0 231.333 20.167 231.333 20.167v254.166h-130.333c-128.333 0-168.375 79.667-168.375 161.375v193.959h286.583l-45.833 298.708h-240.75v722.125c494-77.583 871.875-505.083 871.875-1020.83z" fill="#3777ee" fill-rule="nonzero"/></svg>