<svg clip-rule="evenodd" fill-rule="evenodd" stroke-linejoin="round" stroke-miterlimit="2" viewBox="0 0 4267 4267" xmlns="http://www.w3.org/2000/svg"><g fill-rule="nonzero"><path d="m520.833 0c-138.133 0-270.609 54.873-368.284 152.549-97.676 97.675-152.549 230.151-152.549 368.284v3225c0 138.134 54.873 270.61 152.549 368.285 97.675 97.675 230.151 152.549 368.284 152.549h3225c138.134 0 270.61-54.874 368.285-152.549s152.549-230.151 152.549-368.285v-3225c0-138.133-54.874-270.609-152.549-368.284-97.675-97.676-230.151-152.549-368.285-152.549h-3225z" fill="#3a76f0"/><path d="m1781.25 709.583 32.917 133.334c-129.734 32.063-253.904 83.473-368.334 152.5l-70.416-117.917c125.954-76.277 262.807-132.901 405.833-167.917zm704.167 0-32.917 133.334c129.733 32.063 253.904 83.473 368.333 152.5l71.25-117.917c-126.285-76.21-263.402-132.826-406.666-167.917zm-1607.92 665.417c-76.205 126.139-132.823 263.118-167.917 406.25l133.334 32.917c32.063-129.734 83.473-253.904 152.5-368.334zm-73.333 758.333c-.01-66.671 5.004-133.249 15-199.166l-135.834-20.834c-22.083 145.695-22.083 293.889 0 439.584l135.834-20.417c-9.981-65.92-14.995-132.496-15-199.167zm2087.08 1255.42-70.417-117.5c-114.248 69.091-238.292 120.506-367.916 152.5l32.916 133.333c142.851-35.352 279.538-92.105 405.417-168.333zm571.25-1255.42c-.006 66.671-5.02 133.247-15 199.167l135.833 20.417c22.083-145.695 22.083-293.889 0-439.584l-135.833 20.834c9.996 65.917 15.01 132.495 15 199.166zm94.583 351.667-133.333-32.917c-31.987 129.89-83.401 254.209-152.5 368.75l117.917 70.834c76.279-126.251 132.9-263.379 167.916-406.667zm-1224.58 962.5c-132.023 20.002-266.31 20.002-398.333 0l-20.417 135.833c145.555 22.086 293.612 22.086 439.167 0zm870.833-525.833c-79.195 107.393-174.156 202.213-281.666 281.25l81.666 110.833c118.419-87.175 223.183-191.517 310.834-309.583zm-281.666-1858.33c107.52 79.188 202.479 174.147 281.666 281.667l110.834-82.5c-87.342-118.173-191.827-222.658-310-310zm-1858.33 281.667c79.188-107.52 174.147-202.479 281.667-281.667l-82.5-110.833c-118.173 87.342-222.658 191.827-310 310zm2325.83 30-117.917 70.833c69.091 114.249 120.506 238.292 152.5 367.917l133.333-32.917c-35.096-142.999-91.715-279.841-167.916-405.833zm-1455-555.833c132.023-20.003 266.31-20.003 398.333 0l20.417-135.834c-145.555-22.085-293.612-22.085-439.167 0zm-800.417 2531.25-283.75 65.833 66.25-283.75-133.75-31.25-66.25 283.75c-2.435 10.335-3.665 20.917-3.665 31.535 0 63.647 44.192 119.377 106.165 133.882 20.58 4.583 41.92 4.583 62.5 0l283.75-65.417zm-322.917-371.667 134.167 30.833 45.833-196.666c-66.931-112.274-116.783-233.885-147.916-360.834l-133.334 32.917c29.991 121.516 75.357 238.712 135 348.75zm641.667 297.5-196.667 45.833 31.25 134.167 144.584-33.75c109.954 59.822 227.174 105.198 348.75 135l32.916-133.333c-126.552-31.541-247.732-81.67-359.583-148.75zm680.833-2334.58c-658.333.416-1191.25 534.166-1191.25 1192.08.363 224.067 63.76 443.576 182.917 633.333l-114.583 489.167 488.75-114.583c557.083 350.416 1292.92 183.333 1643.33-373.334 350.417-556.666 183.75-1292.5-372.917-1643.33-190.553-119.83-411.151-183.394-636.25-183.333" fill="#fff"/></g></svg>