<svg clip-rule="evenodd" fill-rule="evenodd" stroke-linejoin="round" stroke-miterlimit="2" viewBox="0 0 1867 1867" xmlns="http://www.w3.org/2000/svg"><path d="m0 0h1866.67v1866.67h-1866.67z" fill="none"/><path d="m564.583 1600h-277.083v-890.833h277.083zm1036.67 0h-276.667v-433.333c0-103.334-2.083-236.25-143.75-236.25-144.166 0-166.25 112.5-166.25 228.75v440.833h-276.666v-890.833h265.416v121.666h3.75c37.084-70 127.5-143.75 262.084-143.75 280 0 332.083 184.584 332.083 424.584zm-1175.42-1012.5c-88.75 0-160.416-72.083-160.416-160.417 0-88.333 71.666-160.416 160.416-160.416 88.334 0 160.417 72.083 160.417 160.416 0 88.75-71.667 160.417-160.417 160.417z" fill="#fff"/><path d="m1733.33 0h-1600.42c-73.334 0-132.917 60.417-132.917 134.583v1597.5c0 74.167 59.583 134.584 132.917 134.584h1600.42c73.334 0 133.334-60.417 133.334-134.584v-1597.5c0-74.166-60-134.583-133.334-134.583zm-1168.75 1600h-277.083v-890.833h277.083zm-138.75-1012.5c-88.75 0-160.416-72.083-160.416-160.417 0-88.333 71.666-160.416 160.416-160.416 88.334 0 160.417 72.083 160.417 160.416 0 88.75-71.667 160.417-160.417 160.417zm1175.42 1012.5h-276.667v-433.333c0-103.334-2.083-236.25-143.75-236.25-144.166 0-166.25 112.5-166.25 228.75v440.833h-276.666v-890.833h265.416v121.666h3.75c37.084-70 127.5-143.75 262.084-143.75 280 0 332.083 184.584 332.083 424.584z" fill="#345ca6" fill-rule="nonzero"/></svg>