<svg clip-rule="evenodd" fill-rule="evenodd" stroke-linejoin="round" stroke-miterlimit="2" viewBox="0 0 417 417" xmlns="http://www.w3.org/2000/svg" xmlns:xlink="http://www.w3.org/1999/xlink"><clipPath id="a"><path clip-rule="evenodd" d="m0 0h416.667v416.667h-416.667z"/></clipPath><clipPath id="b"><path clip-rule="nonzero" d="m72.917 75.245h270.833v266.176h-270.833z"/></clipPath><path d="m0 0h416.667v416.667h-416.667z" fill="none"/><g clip-path="url(#a)"><path d="m416.667 104.504c0-57.491-46.676-104.167-104.167-104.167h-208.333c-57.491 0-104.167 46.676-104.167 104.167v208.333c0 57.491 46.676 104.167 104.167 104.167h208.333c57.491 0 104.167-46.676 104.167-104.167z" fill="#fffc00"/><g clip-path="url(#b)" fill-rule="nonzero"><path d="m335.428 272.956c-1.109-3.68-6.434-6.273-6.434-6.273v.002c-.49-.277-.944-.506-1.324-.69-8.859-4.288-16.707-9.43-23.324-15.283-5.316-4.702-9.867-9.882-13.527-15.397-4.458-6.719-6.549-12.336-7.454-15.375-.5-1.981-.422-2.767-.001-3.799.351-.864 1.363-1.704 1.862-2.08 2.997-2.114 7.812-5.234 10.769-7.15 2.558-1.658 4.767-3.09 6.05-3.985 4.163-2.906 7.004-5.87 8.687-9.062 2.176-4.13 2.432-8.678.739-13.154-2.282-6.034-7.915-9.637-15.069-9.637-1.595 0-3.229.179-4.855.532-4.093.89-7.991 2.348-11.246 3.615-.239.093-.493-.088-.482-.345.348-8.068.728-18.898-.163-29.206-.805-9.317-2.722-17.17-5.858-24.008-3.153-6.872-7.237-11.962-10.443-15.629-3.063-3.504-8.412-8.651-16.502-13.279-11.388-6.514-24.349-9.817-38.519-9.817-14.138 0-27.086 3.303-38.487 9.815-8.56 4.891-14.034 10.42-16.534 13.281-3.207 3.667-7.291 8.757-10.443 15.629-3.137 6.838-5.053 14.691-5.858 24.008-.892 10.328-.533 20.306-.162 29.199.01.26-.247.444-.49.35-3.253-1.267-7.149-2.724-11.24-3.613-1.625-.353-3.259-.532-4.854-.532-7.154-.001-12.787 3.602-15.069 9.637-1.693 4.476-1.437 9.024.739 13.154 1.683 3.192 4.524 6.156 8.687 9.062 1.282.895 3.492 2.327 6.05 3.985 2.895 1.876 7.575 4.909 10.582 7.018.372.266 1.639 1.223 2.041 2.212.432 1.059.504 1.857-.04 3.958-.931 3.073-3.026 8.612-7.408 15.216-3.659 5.515-8.21 10.695-13.526 15.397-6.618 5.853-14.465 10.995-23.324 15.283-.414.2-.918.456-1.46.768l.001-.003s-5.287 2.705-6.286 6.196c-1.475 5.158 2.449 9.988 6.467 12.58 6.56 4.231 14.548 6.506 19.181 7.74 1.29.343 2.461.658 3.523.988.668.223 2.337.85 3.05 1.768.897 1.155 1.004 2.593 1.329 4.201v-.002c.513 2.715 1.643 6.088 5 8.408 3.693 2.552 8.386 2.731 14.327 2.959 6.213.238 13.948.535 22.796 3.457 4.102 1.354 7.818 3.637 12.121 6.281 8.987 5.523 20.172 12.395 39.287 12.395 19.119 0 30.382-6.91 39.432-12.463 4.276-2.624 7.968-4.889 11.977-6.214 8.849-2.924 16.583-3.22 22.798-3.457 5.939-.227 10.63-.406 14.323-2.958 3.597-2.485 4.637-6.178 5.102-8.977.252-1.377.431-2.614 1.22-3.63.676-.87 2.215-1.481 2.943-1.731 1.092-.344 2.301-.669 3.638-1.025 4.633-1.234 10.438-2.702 17.511-6.697 8.453-4.775 9.031-10.705 8.15-13.623" fill="#fff"/><path d="m323.801 280.266c-11.571 6.39-19.273 5.709-25.257 9.561-5.082 3.27-2.08 10.33-5.769 12.879-4.538 3.136-17.959-.224-35.285 5.501-14.292 4.722-23.416 18.312-49.147 18.312-25.787 0-34.642-13.523-49.147-18.312-17.327-5.722-30.747-2.365-35.284-5.501-3.69-2.549-.688-9.609-5.77-12.879-5.984-3.852-13.685-3.171-25.257-9.561-7.373-4.071-3.193-6.591-.737-7.78 41.94-20.299 48.626-51.649 48.927-54.008.36-2.817.762-5.03-2.34-7.898-2.999-2.772-16.289-10.995-19.975-13.567-6.103-4.26-8.788-8.52-6.809-13.752 1.366-3.614 4.755-4.977 8.324-4.977 1.109 0 2.235.132 3.323.368 6.7 1.456 13.207 4.81 16.967 5.721.515.125.975.183 1.382.183 2.002 0 2.708-1.01 2.574-3.308-.428-7.324-1.468-21.612-.315-34.959 1.586-18.36 7.506-27.46 14.545-35.511 3.38-3.866 19.243-20.631 49.592-20.631 30.427 0 46.213 16.765 49.593 20.631 7.038 8.051 12.958 17.151 14.545 35.511 1.153 13.347.159 27.638-.315 34.959-.157 2.415.571 3.308 2.573 3.308.407 0 .867-.058 1.383-.183 3.76-.911 10.266-4.265 16.966-5.721 1.088-.236 2.214-.368 3.323-.368 3.569 0 6.958 1.363 8.324 4.977 1.979 5.232-.706 9.492-6.809 13.752-3.686 2.572-16.976 10.795-19.975 13.567-3.102 2.868-2.699 5.081-2.34 7.898.302 2.359 6.988 33.709 48.927 54.008 2.457 1.189 6.636 3.709-.737 7.78m18.982-10.168c-1.884-5.12-5.463-7.863-9.548-10.13-.769-.447-1.471-.808-2.051-1.089-1.218-.624-2.462-1.235-3.703-1.877-12.725-6.746-22.657-15.259-29.554-25.348-2.327-3.403-3.949-6.48-5.068-8.983-.587-1.684-.564-2.634-.143-3.51.321-.665 1.172-1.355 1.63-1.694 2.184-1.444 4.445-2.91 5.972-3.9 2.728-1.767 4.882-3.164 6.276-4.137 5.226-3.647 8.877-7.529 11.164-11.867 3.22-6.11 3.626-13.091 1.142-19.659-3.444-9.107-12.061-14.764-22.489-14.764-2.16 0-4.36.241-6.539.714-.574.125-1.142.258-1.703.399.095-6.189-.042-12.803-.601-19.267-1.965-22.745-9.924-34.673-18.231-44.176-3.463-3.96-9.49-9.768-18.536-14.942-12.603-7.209-26.888-10.864-42.458-10.864-15.535 0-29.808 3.654-42.421 10.86-9.09 5.193-15.117 10.994-18.572 14.947-8.308 9.502-16.267 21.43-18.232 44.175-.558 6.464-.695 13.078-.601 19.267-.561-.141-1.128-.274-1.703-.399-2.177-.473-4.377-.713-6.538-.714-10.428 0-19.045 5.657-22.489 14.764-2.485 6.568-2.079 13.549 1.141 19.659 2.287 4.338 5.939 8.22 11.164 11.867 1.394.973 3.548 2.37 6.276 4.137 1.473.955 3.629 2.352 5.741 3.747.321.223 1.459 1.053 1.842 1.847.436.907.451 1.887-.203 3.686-1.117 2.471-2.716 5.483-4.989 8.807-6.742 9.863-16.386 18.22-28.704 24.892-6.525 3.474-13.307 5.767-16.171 13.552-2.163 5.878-.747 12.561 4.741 18.192l.002-.005c1.807 1.94 4.078 3.659 6.938 5.238 6.72 3.711 12.433 5.531 16.93 6.776.788.233 2.62.828 3.42 1.528 1.999 1.749 1.713 4.387 4.383 8.246 1.609 2.399 3.474 4.034 5.006 5.092 5.592 3.864 11.877 4.105 18.531 4.36 6.013.23 12.828.491 20.613 3.062 3.223 1.065 6.575 3.123 10.455 5.508 9.32 5.726 22.083 13.568 43.44 13.568 21.358 0 34.202-7.88 43.58-13.634 3.855-2.365 7.184-4.407 10.318-5.443 7.784-2.572 14.599-2.833 20.612-3.063 6.653-.254 12.937-.494 18.53-4.358 1.759-1.215 3.957-3.193 5.702-6.214 1.917-3.255 1.868-5.55 3.667-7.124.736-.644 2.347-1.198 3.213-1.465 4.532-1.247 10.323-3.066 17.156-6.839 3.031-1.674 5.407-3.501 7.264-5.586.023-.026.045-.054.068-.081 5.145-5.539 6.438-12.031 4.33-17.758"/></g></g></svg>