<?xml version="1.0" encoding="UTF-8" standalone="no"?>
<!DOCTYPE svg PUBLIC "-//W3C//DTD SVG 1.1//EN" "http://www.w3.org/Graphics/SVG/1.1/DTD/svg11.dtd">
<svg width="100%" height="100%" viewBox="0 0 417 417" version="1.1" xmlns="http://www.w3.org/2000/svg" xmlns:xlink="http://www.w3.org/1999/xlink" xml:space="preserve" xmlns:serif="http://www.serif.com/" style="fill-rule:evenodd;clip-rule:evenodd;stroke-linejoin:round;stroke-miterlimit:2;">
    <rect id="Artboard1" x="0" y="0" width="416.667" height="416.667" style="fill:none;"/>
    <clipPath id="_clip1">
        <rect x="0" y="0" width="416.667" height="416.667"/>
    </clipPath>
    <g clip-path="url(#_clip1)">
        <path d="M416.667,104.504c-0,-57.491 -46.676,-104.167 -104.167,-104.167l-208.333,0c-57.491,0 -104.167,46.676 -104.167,104.167l-0,208.333c-0,57.491 46.676,104.167 104.167,104.167l208.333,-0c57.491,-0 104.167,-46.676 104.167,-104.167l-0,-208.333Z" style="fill:#fffc00;"/>
        <g>
            <clipPath id="_clip2">
                <rect x="72.917" y="75.245" width="270.833" height="266.176" clip-rule="nonzero"/>
            </clipPath>
            <g clip-path="url(#_clip2)">
                <path d="M335.428,272.956c-1.109,-3.68 -6.434,-6.273 -6.434,-6.273l0,0.002c-0.49,-0.277 -0.944,-0.506 -1.324,-0.69c-8.859,-4.288 -16.707,-9.43 -23.324,-15.283c-5.316,-4.702 -9.867,-9.882 -13.527,-15.397c-4.458,-6.719 -6.549,-12.336 -7.454,-15.375c-0.5,-1.981 -0.422,-2.767 -0.001,-3.799c0.351,-0.864 1.363,-1.704 1.862,-2.08c2.997,-2.114 7.812,-5.234 10.769,-7.15c2.558,-1.658 4.767,-3.09 6.05,-3.985c4.163,-2.906 7.004,-5.87 8.687,-9.062c2.176,-4.13 2.432,-8.678 0.739,-13.154c-2.282,-6.034 -7.915,-9.637 -15.069,-9.637c-1.595,-0 -3.229,0.179 -4.855,0.532c-4.093,0.89 -7.991,2.348 -11.246,3.615c-0.239,0.093 -0.493,-0.088 -0.482,-0.345c0.348,-8.068 0.728,-18.898 -0.163,-29.206c-0.805,-9.317 -2.722,-17.17 -5.858,-24.008c-3.153,-6.872 -7.237,-11.962 -10.443,-15.629c-3.063,-3.504 -8.412,-8.651 -16.502,-13.279c-11.388,-6.514 -24.349,-9.817 -38.519,-9.817c-14.138,0 -27.086,3.303 -38.487,9.815c-8.56,4.891 -14.034,10.42 -16.534,13.281c-3.207,3.667 -7.291,8.757 -10.443,15.629c-3.137,6.838 -5.053,14.691 -5.858,24.008c-0.892,10.328 -0.533,20.306 -0.162,29.199c0.01,0.26 -0.247,0.444 -0.49,0.35c-3.253,-1.267 -7.149,-2.724 -11.24,-3.613c-1.625,-0.353 -3.259,-0.532 -4.854,-0.532c-7.154,-0.001 -12.787,3.602 -15.069,9.637c-1.693,4.476 -1.437,9.024 0.739,13.154c1.683,3.192 4.524,6.156 8.687,9.062c1.282,0.895 3.492,2.327 6.05,3.985c2.895,1.876 7.575,4.909 10.582,7.018c0.372,0.266 1.639,1.223 2.041,2.212c0.432,1.059 0.504,1.857 -0.04,3.958c-0.931,3.073 -3.026,8.612 -7.408,15.216c-3.659,5.515 -8.21,10.695 -13.526,15.397c-6.618,5.853 -14.465,10.995 -23.324,15.283c-0.414,0.2 -0.918,0.456 -1.46,0.768l0.001,-0.003c0,-0 -5.287,2.705 -6.286,6.196c-1.475,5.158 2.449,9.988 6.467,12.58c6.56,4.231 14.548,6.506 19.181,7.74c1.29,0.343 2.461,0.658 3.523,0.988c0.668,0.223 2.337,0.85 3.05,1.768c0.897,1.155 1.004,2.593 1.329,4.201l-0,-0.002c0.513,2.715 1.643,6.088 5,8.408c3.693,2.552 8.386,2.731 14.327,2.959c6.213,0.238 13.948,0.535 22.796,3.457c4.102,1.354 7.818,3.637 12.121,6.281c8.987,5.523 20.172,12.395 39.287,12.395c19.119,-0 30.382,-6.91 39.432,-12.463c4.276,-2.624 7.968,-4.889 11.977,-6.214c8.849,-2.924 16.583,-3.22 22.798,-3.457c5.939,-0.227 10.63,-0.406 14.323,-2.958c3.597,-2.485 4.637,-6.178 5.102,-8.977c0.252,-1.377 0.431,-2.614 1.22,-3.63c0.676,-0.87 2.215,-1.481 2.943,-1.731c1.092,-0.344 2.301,-0.669 3.638,-1.025c4.633,-1.234 10.438,-2.702 17.511,-6.697c8.453,-4.775 9.031,-10.705 8.15,-13.623" style="fill:#fff;fill-rule:nonzero;"/>
                <path d="M323.801,280.266c-11.571,6.39 -19.273,5.709 -25.257,9.561c-5.082,3.27 -2.08,10.33 -5.769,12.879c-4.538,3.136 -17.959,-0.224 -35.285,5.501c-14.292,4.722 -23.416,18.312 -49.147,18.312c-25.787,0 -34.642,-13.523 -49.147,-18.312c-17.327,-5.722 -30.747,-2.365 -35.284,-5.501c-3.69,-2.549 -0.688,-9.609 -5.77,-12.879c-5.984,-3.852 -13.685,-3.171 -25.257,-9.561c-7.373,-4.071 -3.193,-6.591 -0.737,-7.78c41.94,-20.299 48.626,-51.649 48.927,-54.008c0.36,-2.817 0.762,-5.03 -2.34,-7.898c-2.999,-2.772 -16.289,-10.995 -19.975,-13.567c-6.103,-4.26 -8.788,-8.52 -6.809,-13.752c1.366,-3.614 4.755,-4.977 8.324,-4.977c1.109,0 2.235,0.132 3.323,0.368c6.7,1.456 13.207,4.81 16.967,5.721c0.515,0.125 0.975,0.183 1.382,0.183c2.002,0 2.708,-1.01 2.574,-3.308c-0.428,-7.324 -1.468,-21.612 -0.315,-34.959c1.586,-18.36 7.506,-27.46 14.545,-35.511c3.38,-3.866 19.243,-20.631 49.592,-20.631c30.427,0 46.213,16.765 49.593,20.631c7.038,8.051 12.958,17.151 14.545,35.511c1.153,13.347 0.159,27.638 -0.315,34.959c-0.157,2.415 0.571,3.308 2.573,3.308c0.407,0 0.867,-0.058 1.383,-0.183c3.76,-0.911 10.266,-4.265 16.966,-5.721c1.088,-0.236 2.214,-0.368 3.323,-0.368c3.569,0 6.958,1.363 8.324,4.977c1.979,5.232 -0.706,9.492 -6.809,13.752c-3.686,2.572 -16.976,10.795 -19.975,13.567c-3.102,2.868 -2.699,5.081 -2.34,7.898c0.302,2.359 6.988,33.709 48.927,54.008c2.457,1.189 6.636,3.709 -0.737,7.78m18.982,-10.168c-1.884,-5.12 -5.463,-7.863 -9.548,-10.13c-0.769,-0.447 -1.471,-0.808 -2.051,-1.089c-1.218,-0.624 -2.462,-1.235 -3.703,-1.877c-12.725,-6.746 -22.657,-15.259 -29.554,-25.348c-2.327,-3.403 -3.949,-6.48 -5.068,-8.983c-0.587,-1.684 -0.564,-2.634 -0.143,-3.51c0.321,-0.665 1.172,-1.355 1.63,-1.694c2.184,-1.444 4.445,-2.91 5.972,-3.9c2.728,-1.767 4.882,-3.164 6.276,-4.137c5.226,-3.647 8.877,-7.529 11.164,-11.867c3.22,-6.11 3.626,-13.091 1.142,-19.659c-3.444,-9.107 -12.061,-14.764 -22.489,-14.764c-2.16,0 -4.36,0.241 -6.539,0.714c-0.574,0.125 -1.142,0.258 -1.703,0.399c0.095,-6.189 -0.042,-12.803 -0.601,-19.267c-1.965,-22.745 -9.924,-34.673 -18.231,-44.176c-3.463,-3.96 -9.49,-9.768 -18.536,-14.942c-12.603,-7.209 -26.888,-10.864 -42.458,-10.864c-15.535,-0 -29.808,3.654 -42.421,10.86c-9.09,5.193 -15.117,10.994 -18.572,14.947c-8.308,9.502 -16.267,21.43 -18.232,44.175c-0.558,6.464 -0.695,13.078 -0.601,19.267c-0.561,-0.141 -1.128,-0.274 -1.703,-0.399c-2.177,-0.473 -4.377,-0.713 -6.538,-0.714c-10.428,0 -19.045,5.657 -22.489,14.764c-2.485,6.568 -2.079,13.549 1.141,19.659c2.287,4.338 5.939,8.22 11.164,11.867c1.394,0.973 3.548,2.37 6.276,4.137c1.473,0.955 3.629,2.352 5.741,3.747c0.321,0.223 1.459,1.053 1.842,1.847c0.436,0.907 0.451,1.887 -0.203,3.686c-1.117,2.471 -2.716,5.483 -4.989,8.807c-6.742,9.863 -16.386,18.22 -28.704,24.892c-6.525,3.474 -13.307,5.767 -16.171,13.552c-2.163,5.878 -0.747,12.561 4.741,18.192l0.002,-0.005c1.807,1.94 4.078,3.659 6.938,5.238c6.72,3.711 12.433,5.531 16.93,6.776c0.788,0.233 2.62,0.828 3.42,1.528c1.999,1.749 1.713,4.387 4.383,8.246c1.609,2.399 3.474,4.034 5.006,5.092c5.592,3.864 11.877,4.105 18.531,4.36c6.013,0.23 12.828,0.491 20.613,3.062c3.223,1.065 6.575,3.123 10.455,5.508c9.32,5.726 22.083,13.568 43.44,13.568c21.358,0 34.202,-7.88 43.58,-13.634c3.855,-2.365 7.184,-4.407 10.318,-5.443c7.784,-2.572 14.599,-2.833 20.612,-3.063c6.653,-0.254 12.937,-0.494 18.53,-4.358c1.759,-1.215 3.957,-3.193 5.702,-6.214c1.917,-3.255 1.868,-5.55 3.667,-7.124c0.736,-0.644 2.347,-1.198 3.213,-1.465c4.532,-1.247 10.323,-3.066 17.156,-6.839c3.031,-1.674 5.407,-3.501 7.264,-5.586c0.023,-0.026 0.045,-0.054 0.068,-0.081c5.145,-5.539 6.438,-12.031 4.33,-17.758" style="fill-rule:nonzero;"/>
            </g>
        </g>
    </g>
</svg>
